<svg width="38" height="32" viewBox="0 0 38 32" fill="none" xmlns="http://www.w3.org/2000/svg">
<g clip-path="url(#clip0_21_3473)">
<mask id="mask0_21_3473" style="mask-type:alpha" maskUnits="userSpaceOnUse" x="0" y="0" width="20" height="32">
<rect x="0.763672" width="18.6502" height="32" fill="#C4C4C4"/>
</mask>
<g mask="url(#mask0_21_3473)">
<path d="M15.9345 28.8447C15.6493 28.8447 15.3624 28.812 15.0799 28.7454C14.1274 28.5209 13.3465 27.9391 12.9374 27.1491C12.5966 26.4907 11.8162 26.0962 11.001 26.165C10.0166 26.2467 9.0562 25.9439 8.35921 25.3302C7.66178 24.7163 7.31662 23.8689 7.41124 23.005C7.42729 22.8581 7.41607 22.7138 7.39014 22.5728L3.5625 24.5179C6.67333 28.8587 12.0834 31.7977 18.2774 32V28.1057C18.1257 28.1564 17.9781 28.22 17.8416 28.3057C17.277 28.6603 16.6111 28.8447 15.9345 28.8447V28.8447Z" fill="#FF7010"/>
<path d="M15.433 4.41476C14.8755 4.54633 14.4189 4.8867 14.1795 5.34905C13.5975 6.47375 12.26 7.15018 10.8704 7.03073C10.2952 6.98205 9.73234 7.15976 9.32455 7.51908C8.91631 7.87821 8.71418 8.37419 8.76971 8.87975C8.81397 9.28421 8.75217 9.67951 8.61523 10.0498L18.2774 14.9599V5.13943C17.8446 5.05866 17.4248 4.90815 17.0491 4.67223C16.5796 4.37703 15.9901 4.28378 15.433 4.41476V4.41476ZM15.6243 10.915C14.5944 11.4384 13.2773 11.1278 12.6828 10.2213C12.0882 9.31473 12.441 8.15557 13.4709 7.6322C14.5008 7.10883 15.8178 7.41943 16.4124 8.32593C17.007 9.23245 16.6542 10.3916 15.6243 10.915Z" fill="#FF7010"/>
<path d="M6.29246 21.3003C5.39513 20.9408 4.73413 20.2536 4.4787 19.4153C4.22327 18.5768 4.40541 17.6906 4.97845 16.9841C5.45555 16.3954 5.45555 15.6045 4.97845 15.016C4.40541 14.3093 4.22327 13.4231 4.4787 12.5846C4.73413 11.7463 5.39513 11.0591 6.29246 10.6994C6.44505 10.6382 6.58143 10.5576 6.70714 10.4673L2.87662 8.52075C1.53001 10.7549 0.763672 13.2996 0.763672 16C0.763672 18.7003 1.53001 21.2451 2.87662 23.4792L6.70725 21.5326C6.58148 21.4422 6.44505 21.3615 6.29246 21.3003Z" fill="#FF7010"/>
<path d="M5.79647 19.1043C5.94573 19.5948 6.33265 19.9969 6.85816 20.2073C7.27812 20.3758 7.6361 20.6205 7.93201 20.91L17.5943 16L7.93196 11.0898C7.6361 11.3793 7.27806 11.624 6.85816 11.7924C6.33265 12.003 5.94573 12.4051 5.79647 12.8956C5.64721 13.3861 5.75382 13.9048 6.08877 14.3183C6.9048 15.3241 6.9048 16.6758 6.08877 17.6818C5.75382 18.0951 5.64721 18.6138 5.79647 19.1043V19.1043ZM10.1345 14.1046C11.3238 14.1046 12.2878 14.9532 12.2878 16C12.2878 17.0467 11.3238 17.8953 10.1345 17.8953C8.94523 17.8953 7.98115 17.0467 7.98115 16C7.98115 14.9532 8.94523 14.1046 10.1345 14.1046Z" fill="#FF7010"/>
<path d="M3.5625 7.48218L7.39014 9.42727C7.41613 9.28622 7.42729 9.14184 7.41124 8.9949C7.31662 8.13119 7.66178 7.28371 8.35921 6.66984C9.05664 6.05598 10.0179 5.75237 11.0014 5.83506C11.8148 5.90564 12.5971 5.50897 12.9374 4.85132C13.3465 4.06111 14.1274 3.47931 15.0799 3.25468C16.0327 3.03005 17.0389 3.19017 17.8416 3.69436C17.9781 3.78003 18.1257 3.84364 18.2774 3.89438V0C12.0834 0.202316 6.67333 3.14139 3.5625 7.48218V7.48218Z" fill="#FF7010"/>
<path d="M8.76971 23.1201C8.71418 23.6258 8.91631 24.1218 9.32455 24.4809C9.73234 24.8401 10.3001 25.0164 10.87 24.9693C12.272 24.8497 13.598 25.5269 14.1795 26.651C14.4189 27.1131 14.8755 27.4537 15.433 27.5853C15.9897 27.7166 16.5796 27.623 17.0491 27.3278C17.4248 27.0919 17.8446 26.9414 18.2774 26.8606V17.0402L8.61523 21.9502C8.75217 22.3204 8.81397 22.7157 8.76971 23.1201V23.1201ZM12.6828 21.7788C13.2773 20.8722 14.5944 20.5616 15.6243 21.085C16.6542 21.6084 17.007 22.7676 16.4124 23.6741C15.8178 24.5806 14.5008 24.8912 13.4709 24.3678C12.441 23.8444 12.0882 22.6853 12.6828 21.7788V21.7788Z" fill="#FF7010"/>
</g>
<path d="M34.7852 26.2613C33.9778 24.896 33.8899 23.292 34.5464 21.8607C35.2598 20.3027 35.6374 18.506 35.6374 16.6667C35.6374 13.522 34.6397 11.5913 33.6738 9.724C32.8103 8.05333 31.9998 6.45667 31.8725 3.99533C32.2788 3.98267 32.6048 3.69333 32.6048 3.33333C32.6048 2.96533 32.2659 2.66667 31.8467 2.66667V0.666667C31.8467 0.298667 31.5078 0 31.0886 0H25.0234C24.6042 0 24.2653 0.298667 24.2653 0.666667V2.66667C23.8461 2.66667 23.5072 2.96533 23.5072 3.33333C23.5072 3.69333 23.8332 3.98267 24.2395 3.99533C24.1122 6.45667 23.3017 8.054 22.4382 9.724C21.4731 11.5913 20.4746 13.522 20.4746 16.6667C20.4746 18.506 20.8522 20.3027 21.5656 21.8613C22.2214 23.2933 22.1342 24.8973 21.3268 26.262C20.7695 27.2033 20.4746 28.2653 20.4746 29.3333C20.4746 30.0827 20.6224 30.83 20.9143 31.5553C21.0212 31.822 21.3078 32 21.6285 32H34.482C34.8034 32 35.0893 31.822 35.1962 31.556C35.4896 30.8313 35.6374 30.0833 35.6374 29.3333C35.6374 28.2653 35.3432 27.2033 34.7852 26.2613C34.7852 26.262 34.7852 26.262 34.7852 26.2613ZM30.3463 4C30.3683 4.47467 30.4214 4.91133 30.4866 5.33333H25.6262C25.6914 4.91133 25.7444 4.47467 25.7664 4H30.3463ZM33.134 12C33.3205 12.424 33.4888 12.8653 33.6336 13.3333H22.4784C22.6232 12.8653 22.7915 12.424 22.978 12H33.134ZM33.6367 20C33.5002 20.46 33.344 20.9087 33.1515 21.3333H22.9613C22.7687 20.9087 22.6126 20.46 22.4761 20H33.6367Z" fill="#FF7010"/>
</g>
<defs>
<clipPath id="clip0_21_3473">
<rect width="36.3907" height="32" fill="white" transform="translate(0.763672)"/>
</clipPath>
</defs>
</svg>
