<svg width="37" height="32" viewBox="0 0 37 32" fill="none" xmlns="http://www.w3.org/2000/svg">
<g clip-path="url(#clip0_21_3444)">
<path d="M20.4981 15.7921C19.9914 15.346 19.3096 15.0961 18.5994 15.0961C17.8891 15.0961 17.2073 15.346 16.7006 15.7921C16.7006 15.7921 15.21 17.128 14.7852 17.4286L16.0895 32H21.1204L22.4248 17.4386C22.1788 17.3184 20.4981 15.7921 20.4981 15.7921Z" fill="#FF7010"/>
<path d="M11.0654 15.6419C10.5824 15.2181 9.94016 14.9713 9.26464 14.9497C8.58912 14.928 7.92892 15.1332 7.41333 15.525L4.80469 17.4887L7.31644 29.9494C7.43184 30.5223 7.7683 31.0406 8.26697 31.4136C8.76564 31.7866 9.39478 31.9907 10.0443 31.99H14.5983L13.3014 17.5121C13.007 17.4119 11.0654 15.6419 11.0654 15.6419Z" fill="#FF7010"/>
<path d="M17.9968 2.68013C18.1892 2.74855 18.3936 2.78586 18.6005 2.79034C18.8595 2.79599 19.1156 2.74105 19.3437 2.63095C19.5718 2.52085 19.7639 2.35938 19.9011 2.16247C20.0715 1.93544 20.1624 1.66795 20.162 1.39432C20.1611 1.18167 20.1062 0.971984 20.0014 0.781202C19.8965 0.590421 19.7446 0.423559 19.557 0.293291C19.3695 0.163024 19.1513 0.0727779 18.919 0.0294094C18.6867 -0.013959 18.4464 -0.0093095 18.2164 0.0430052C17.9864 0.0953198 17.7727 0.193924 17.5916 0.331325C17.4105 0.468727 17.2667 0.641312 17.1712 0.835971C17.0757 1.03063 17.0309 1.24224 17.0403 1.45473C17.0497 1.66722 17.113 1.87499 17.2254 2.06227C17.4001 2.33837 17.6711 2.55543 17.9968 2.68013V2.68013Z" fill="#FF7010"/>
<path d="M27.5936 8.51142L27.1687 8.42125L27.0644 8.04052C26.3973 5.70268 24.0235 3.80234 20.949 3.15443C20.6703 3.47107 20.3119 3.72417 19.9033 3.89307C19.4946 4.06197 19.0472 4.14189 18.5975 4.1263C17.3491 4.1263 16.3168 3.20786 16.2572 3.14441C13.1864 3.79233 10.8125 5.67262 10.1492 8.02382L10.0486 8.42125L9.62001 8.52144C7.82542 8.94089 6.27817 9.96029 5.29609 11.3702C4.31401 12.7802 3.97167 14.4736 4.33937 16.1027L6.45237 14.5097C7.25079 13.9039 8.27252 13.5868 9.31794 13.6201C10.3634 13.6535 11.3573 14.0349 12.1057 14.69L13.969 16.3065L15.6758 14.8269C16.0585 14.4834 16.5143 14.2124 17.0163 14.0299C17.5182 13.8475 18.0559 13.7573 18.5975 13.7649C19.6976 13.7712 20.7519 14.1604 21.5378 14.8503L23.2073 16.3131L25.1116 14.6733C25.8609 14.0248 26.8521 13.6486 27.8931 13.6178C28.9342 13.5869 29.9509 13.9036 30.7463 14.5063L32.8556 16.1027C33.23 14.4742 32.8929 12.779 31.9139 11.3666C30.9349 9.9542 29.3885 8.93225 27.5936 8.51142V8.51142Z" fill="#FF7010"/>
<path d="M26.144 15.6218C26.144 15.6218 24.1391 17.4053 23.908 17.4854L22.6074 31.99H27.1688C27.8184 31.9907 28.4475 31.7866 28.9462 31.4136C29.4449 31.0406 29.7813 30.5223 29.8967 29.9494L31.1451 23.7575L32.3861 17.4887L29.7775 15.5149C29.2641 15.1273 28.6088 14.9237 27.9378 14.9435C27.2669 14.9632 26.6279 15.2048 26.144 15.6218V15.6218Z" fill="#FF7010"/>
</g>
<defs>
<clipPath id="clip0_21_3444">
<rect width="36.3907" height="32" fill="white" transform="translate(0.404297)"/>
</clipPath>
</defs>
</svg>
