<svg width="37" height="32" viewBox="0 0 37 32" fill="none" xmlns="http://www.w3.org/2000/svg">
<path d="M19.9373 6.51327V3.68142L26.8202 2.2429C27.3979 2.12218 27.7459 1.5301 27.5704 0.966672L27.5384 0.863915C27.3856 0.373461 26.8861 0.0785275 26.3829 0.181655L18.2227 1.85391C17.7575 1.94925 17.4235 2.35865 17.4235 2.83355V6.51327H9.06641C8.51412 6.51327 8.06641 6.96099 8.06641 7.51327V11.115H29.2943V7.51327C29.2943 6.96099 28.8466 6.51327 28.2943 6.51327H19.9373Z" fill="#FF7010"/>
<path d="M8.16406 12.885L11.055 30.1593C11.2226 31.2213 12.3119 32.0001 13.5269 32.0001H23.7079C24.9649 32.0001 26.0123 31.2213 26.1799 30.1593L29.0708 12.885H8.16406Z" fill="#FF7010"/>
</svg>
