<svg width="37" height="32" viewBox="0 0 37 32" fill="none" xmlns="http://www.w3.org/2000/svg">
<g clip-path="url(#clip0_11_3455)">
<path d="M32.3305 18.7357C31.9136 13.9632 29.3868 10.9725 27.1575 8.33343C25.0934 5.89018 23.3106 3.7803 23.3106 0.66793C23.3106 0.41793 23.1514 0.189431 22.8989 0.0748681C22.6457 -0.0403819 22.3414 -0.0215069 22.1112 0.125618C18.7632 2.23224 15.9698 5.7828 14.994 9.17055C14.3166 11.5291 14.227 14.1806 14.2144 15.9318C11.1226 15.3511 10.4222 11.2844 10.4148 11.2401C10.38 11.0291 10.2335 10.8456 10.0202 10.7453C9.8048 10.6464 9.55156 10.6392 9.33314 10.7342C9.17102 10.8032 5.35362 12.5089 5.13151 19.3189C5.11594 19.5455 5.11523 19.7727 5.11523 19.9999C5.11523 26.616 11.2373 31.9991 18.7617 31.9991C18.7721 31.9997 18.7832 32.001 18.7921 31.9991C18.7951 31.9991 18.798 31.9991 18.8017 31.9991C26.3076 31.9802 32.4082 26.6043 32.4082 19.9999C32.4082 19.6672 32.3305 18.7357 32.3305 18.7357ZM18.7617 30.6659C16.2533 30.6659 14.2129 28.7545 14.2129 26.4051C14.2129 26.325 14.2122 26.2443 14.2188 26.1454C14.2492 25.1545 14.4632 24.4782 14.6979 24.0283C15.1377 24.859 15.9239 25.6226 17.2011 25.6226C17.6201 25.6226 17.9592 25.3244 17.9592 24.956C17.9592 24.0069 17.9815 22.9119 18.2502 21.9236C18.4894 21.0474 19.0609 20.1151 19.785 19.3678C20.1071 20.3378 20.7349 21.1229 21.348 21.8891C22.2253 22.9854 23.1322 24.1188 23.2915 26.0516C23.3011 26.1662 23.3107 26.2814 23.3107 26.4051C23.3106 28.7545 21.2701 30.6659 18.7617 30.6659Z" fill="#E23535"/>
</g>
<defs>
<clipPath id="clip0_11_3455">
<rect width="36.3907" height="32" fill="white" transform="translate(0.566406)"/>
</clipPath>
</defs>
</svg>
