<svg width="16" height="20" viewBox="0 0 16 20" fill="none" xmlns="http://www.w3.org/2000/svg">
<path d="M8.30831 3.90644C6.62114 3.89574 5.23941 5.1125 5.22665 6.62028C5.21394 8.12797 6.57579 9.36376 8.26243 9.37513C8.27026 9.37516 8.27803 9.3752 8.28585 9.3752C9.96175 9.3752 11.3314 8.16208 11.3441 6.66129C11.3568 5.15367 9.99501 3.91781 8.30831 3.90644ZM8.28577 8.59399C8.28026 8.59399 8.27449 8.59395 8.26899 8.59391C7.06423 8.58579 6.09145 7.70305 6.10054 6.62614C6.10959 5.55406 7.08787 4.68758 8.28498 4.68758C8.29049 4.68758 8.29625 4.68762 8.30176 4.68765C9.50652 4.69578 10.4793 5.57852 10.4702 6.65543C10.4611 7.7275 9.48288 8.59399 8.28577 8.59399Z" fill="#FF7010"/>
<path d="M10.9671 14.7048C13.8735 11.3605 15.6899 9.6165 15.7144 6.69056C15.7451 3.00919 12.4031 0 8.28532 0C4.21559 0 0.888609 2.94641 0.857672 6.59095C0.832677 9.59623 2.68275 11.3378 5.6092 14.7042C2.69791 15.0932 0.857672 16.0704 0.857672 17.2657C0.857672 18.0663 1.68555 18.7848 3.18885 19.2887C4.55712 19.7474 6.36734 20 8.28602 20C10.2047 20 12.0149 19.7474 13.3832 19.2887C14.8865 18.7848 15.7144 18.0663 15.7144 17.2656C15.7144 16.071 13.8758 15.094 10.9671 14.7048ZM1.73156 6.59685C1.75883 3.38087 4.69415 0.781252 8.28541 0.781252C11.9192 0.781252 14.8676 3.43704 14.8405 6.68474C14.8172 9.46342 12.891 11.1758 9.81575 14.7595C9.26723 15.3984 8.76349 16.0025 8.28668 16.5934C7.81126 16.0021 7.31757 15.4089 6.76083 14.7593C3.55848 11.0255 1.70788 9.44256 1.73156 6.59685ZM8.28602 19.2188C4.53462 19.2188 1.73156 18.1877 1.73156 17.2657C1.73156 16.5819 3.40724 15.7182 6.22472 15.4191C6.84752 16.1496 7.39356 16.8132 7.9291 17.4911C8.01091 17.5946 8.14383 17.6562 8.28563 17.6563C8.28576 17.6563 8.28589 17.6563 8.28602 17.6563C8.42768 17.6563 8.56057 17.5949 8.6425 17.4916C9.17297 16.8226 9.73395 16.1425 10.3514 15.4195C13.1663 15.7189 14.8405 16.5824 14.8405 17.2657C14.8404 18.1877 12.0374 19.2188 8.28602 19.2188Z" fill="#FF7010"/>
</svg>
