<svg width="37" height="32" viewBox="0 0 37 32" fill="none" xmlns="http://www.w3.org/2000/svg">
<path d="M36.5014 0.180314C36.3063 0.0118144 36.0178 -0.0444355 35.7597 0.0364394L6.09171 9.29248C5.061 8.74098 3.75364 8.61186 2.55457 9.0463C0.564217 9.76773 -0.384425 11.7715 0.440002 13.5132C2.38421 17.62 5.19128 21.296 8.78349 24.4392C12.3757 27.5824 16.5768 30.0386 21.2703 31.7398C21.7578 31.9164 22.263 32 22.7604 32C24.2943 31.9999 25.7528 31.2046 26.3753 29.8894C26.7942 29.0046 26.7546 28.0522 26.354 27.2344L36.6754 0.827375C36.7642 0.600376 36.6966 0.348876 36.5014 0.180314ZM10.5838 9.21805L13.7281 8.23717C14.0973 8.5813 14.2772 9.05505 14.2051 9.53417C14.1416 9.95604 13.8941 10.3311 13.5083 10.5902C13.1226 10.8492 12.6448 10.9612 12.1623 10.9057C11.6803 10.8502 11.2517 10.6337 10.9556 10.2961C10.6828 9.98504 10.5531 9.60554 10.5838 9.21805ZM25.0555 29.411C24.5325 30.5159 23.0795 31.0424 21.817 30.5847C12.6713 27.27 5.54828 21.0373 1.75993 13.0348C1.50657 12.4996 1.50657 11.9102 1.75993 11.3749C2.01329 10.8397 2.48964 10.4229 3.10128 10.2012C3.71293 9.97954 4.38664 9.97954 4.99828 10.2012C5.60992 10.4229 6.08628 10.8397 6.33964 11.3749C7.96113 14.8003 10.3026 17.8665 13.2988 20.4882C16.2951 23.11 19.7993 25.1586 23.714 26.5775C24.9768 27.0351 25.5785 28.3063 25.0555 29.411ZM31.4014 10.458C31.3367 10.4567 31.272 10.4534 31.2075 10.446C30.7254 10.3905 30.2968 10.174 30.0008 9.83642C29.7047 9.49886 29.5767 9.08055 29.6401 8.65873C29.7712 7.78786 30.6872 7.17274 31.6829 7.28724C31.99 7.32261 32.2784 7.42686 32.5243 7.58542L31.4014 10.458ZM32.9991 6.37018C32.6511 6.20436 32.2687 6.09393 31.8693 6.04793C30.0928 5.84274 28.4576 6.9413 28.2237 8.49561C28.1105 9.24848 28.339 9.99492 28.8674 10.5974C29.3763 11.1777 30.1049 11.5569 30.9267 11.6725L29.507 15.3049L27.8743 14.2087C27.5614 13.9987 27.1129 14.0502 26.8728 14.324C26.6327 14.5979 26.6917 14.9902 27.0047 15.2003L29.0193 16.553L25.3269 26.0001C25.0172 25.7645 24.6605 25.5674 24.261 25.4226C16.691 22.6789 10.7953 17.5202 7.65985 10.8965C7.55085 10.6662 7.41542 10.4523 7.25921 10.2553L9.17199 9.65854C9.23877 10.1628 9.45999 10.6438 9.82235 11.057C10.3506 11.6595 11.1156 12.0459 11.976 12.1449C12.1201 12.1615 12.2638 12.1698 12.4068 12.1698C13.1174 12.1698 13.8048 11.9667 14.3781 11.5819C15.0667 11.1195 15.5082 10.4503 15.6216 9.69729C15.7232 9.02136 15.5429 8.35186 15.1381 7.79724L24.0172 5.02712L24.3537 5.73799C24.4677 5.97868 24.7336 6.12399 25.0139 6.12399C25.105 6.12399 25.1975 6.10861 25.287 6.07624C25.6514 5.94418 25.8245 5.57849 25.6735 5.25962L25.3645 4.60681L34.8444 1.64919L32.9991 6.37018Z" fill="#FF7010"/>
<path d="M7.85718 16.7673C7.85503 16.7643 7.84911 16.7564 7.84682 16.7535C7.62811 16.4665 7.18546 16.3894 6.85725 16.5806C6.52961 16.7715 6.44075 17.1589 6.65761 17.4461C6.79439 17.63 7.02325 17.7303 7.25703 17.7303C7.38932 17.7303 7.52311 17.6981 7.64253 17.631C7.97439 17.4443 8.07046 17.0576 7.85718 16.7673Z" fill="#FF7010"/>
<path d="M6.77112 15.2146C6.07505 14.1467 5.44934 13.0291 4.91141 11.8929C4.76048 11.5739 4.34241 11.4226 3.9782 11.5547C3.6137 11.6868 3.4407 12.0524 3.5917 12.3713C4.15241 13.5557 4.8047 14.7207 5.53027 15.8338C5.66205 16.0359 5.90319 16.1493 6.15134 16.1493C6.27134 16.1493 6.39298 16.1228 6.50455 16.0671C6.84719 15.8961 6.96662 15.5144 6.77112 15.2146Z" fill="#FF7010"/>
<path d="M22.4939 7.99923C22.3523 7.98286 22.2086 7.97461 22.0666 7.97461C20.4439 7.97461 19.0604 9.03742 18.8484 10.4468C18.6145 12.001 19.8693 13.432 21.6456 13.6367C21.7871 13.653 21.9309 13.6613 22.0729 13.6613C23.6955 13.6613 25.0791 12.5985 25.2911 11.189C25.5249 9.63479 24.2701 8.20386 22.4939 7.99923ZM23.8748 11.0259C23.756 11.8157 22.9813 12.4112 22.0729 12.4112C21.9931 12.4112 21.912 12.4066 21.8321 12.3973C20.8367 12.2827 20.1337 11.4809 20.2647 10.6099C20.3836 9.82017 21.1581 9.22467 22.0666 9.22467C22.1464 9.22467 22.2275 9.22929 22.3074 9.23854C23.3027 9.35329 24.0058 10.155 23.8748 11.0259Z" fill="#FF7010"/>
<path d="M22.3087 15.7734C22.1671 15.757 22.0234 15.7488 21.8814 15.7488C20.2587 15.7488 18.8751 16.8116 18.6631 18.221C18.5498 18.974 18.7784 19.7203 19.3067 20.3229C19.835 20.9254 20.5999 21.3118 21.4604 21.411C21.6019 21.4273 21.7456 21.4355 21.8875 21.4355C23.5101 21.4355 24.8938 20.3726 25.1059 18.9631C25.3398 17.409 24.0849 15.9782 22.3087 15.7734ZM23.6896 18.8001C23.5708 19.5899 22.7961 20.1855 21.8876 20.1855C21.8079 20.1855 21.7268 20.1808 21.6469 20.1716C21.1648 20.116 20.7362 19.8995 20.4401 19.5619C20.1441 19.2243 20.016 18.8061 20.0795 18.3841C20.1984 17.5944 20.973 16.9988 21.8814 16.9988C21.9612 16.9988 22.0423 17.0035 22.1222 17.0127C23.1174 17.1274 23.8206 17.9292 23.6896 18.8001Z" fill="#FF7010"/>
<path d="M17.5988 13.1841L15.4033 12.9312C15.0124 12.8857 14.6534 13.127 14.6019 13.4692C14.5503 13.8114 14.8257 14.1253 15.2168 14.1704L17.4122 14.4233C17.4438 14.427 17.4753 14.4288 17.5063 14.4288C17.8593 14.4288 18.1663 14.1998 18.2135 13.8853C18.2652 13.5432 17.9899 13.2292 17.5988 13.1841Z" fill="#FF7010"/>
<path d="M16.4855 17.7964L16.2916 16.5074C16.2401 16.1651 15.8814 15.9241 15.4903 15.9693C15.0991 16.0144 14.8238 16.3283 14.8753 16.6705L15.0693 17.9595C15.1165 18.2741 15.4235 18.503 15.7765 18.503C15.8075 18.503 15.839 18.5012 15.8705 18.4976C16.2617 18.4525 16.537 18.1386 16.4855 17.7964Z" fill="#FF7010"/>
</svg>
