<svg width="37" height="32" viewBox="0 0 37 32" fill="none" xmlns="http://www.w3.org/2000/svg">
<path d="M29.9482 23.0051C30.0428 23.8688 29.6976 24.7163 29.0002 25.3302C28.3028 25.944 27.3415 26.2475 26.3579 26.165C25.5419 26.0956 24.7623 26.4909 24.422 27.1487C24.0129 27.9389 23.232 28.5207 22.2795 28.7453C21.3262 28.9698 20.3201 28.8099 19.5178 28.3057C19.3813 28.22 19.2337 28.1564 19.082 28.1056V32C25.276 31.7977 30.6861 28.8586 33.7969 24.5178L29.9693 22.5728C29.9433 22.7138 29.9321 22.8582 29.9482 23.0051V23.0051Z" fill="#FF7010"/>
<path d="M15.3759 28.8447C15.0907 28.8447 14.8038 28.812 14.5213 28.7454C13.5688 28.5209 12.7879 27.9391 12.3788 27.1491C12.0381 26.4907 11.2576 26.0962 10.4424 26.165C9.45801 26.2467 8.4976 25.9439 7.80062 25.3302C7.10319 24.7163 6.75803 23.8689 6.85265 23.005C6.8687 22.8581 6.85748 22.7138 6.83155 22.5728L3.00391 24.5179C6.11474 28.8587 11.5248 31.7977 17.7188 32V28.1057C17.5671 28.1564 17.4195 28.22 17.283 28.3057C16.7184 28.6603 16.0525 28.8447 15.3759 28.8447V28.8447Z" fill="#FF7010"/>
<path d="M14.8745 4.41476C14.317 4.54633 13.8603 4.8867 13.6209 5.34905C13.0389 6.47375 11.7014 7.15018 10.3118 7.03073C9.73658 6.98205 9.17375 7.15976 8.76595 7.51908C8.35771 7.87821 8.15559 8.37419 8.21112 8.87975C8.25537 9.28421 8.19357 9.67951 8.05664 10.0498L17.7188 14.9599V5.13943C17.286 5.05866 16.8662 4.90815 16.4905 4.67223C16.021 4.37703 15.4315 4.28378 14.8745 4.41476V4.41476ZM15.0657 10.915C14.0358 11.4384 12.7188 11.1278 12.1242 10.2213C11.5296 9.31473 11.8824 8.15557 12.9123 7.6322C13.9423 7.10883 15.2592 7.41943 15.8539 8.32593C16.4484 9.23245 16.0956 10.3916 15.0657 10.915Z" fill="#FF7010"/>
<path d="M5.73387 21.3003C4.83654 20.9408 4.17554 20.2536 3.92011 19.4153C3.66468 18.5768 3.84681 17.6906 4.41986 16.9841C4.89695 16.3954 4.89695 15.6045 4.41986 15.016C3.84681 14.3093 3.66468 13.4231 3.92011 12.5846C4.17554 11.7463 4.83654 11.0591 5.73387 10.6994C5.88646 10.6382 6.02284 10.5576 6.14855 10.4673L2.31802 8.52075C0.971417 10.7549 0.205078 13.2996 0.205078 16C0.205078 18.7003 0.971417 21.2451 2.31802 23.4792L6.14866 21.5326C6.02289 21.4422 5.88646 21.3615 5.73387 21.3003Z" fill="#FF7010"/>
<path d="M22.2795 3.25468C23.232 3.47911 24.0129 4.06092 24.422 4.85092C24.7623 5.50936 25.5419 5.90466 26.3584 5.83506C27.3397 5.75198 28.3032 6.05617 29.0002 6.66984C29.6976 7.28371 30.0428 8.13119 29.9482 8.9951C29.9321 9.14197 29.9433 9.28629 29.9693 9.4273L33.7969 7.48218C30.6861 3.14139 25.276 0.202316 19.082 0V3.89438C19.2337 3.84364 19.3813 3.78003 19.5178 3.69436C20.3201 3.19017 21.3262 3.02966 22.2795 3.25468V3.25468Z" fill="#FF7010"/>
<path d="M5.23788 19.1043C5.38713 19.5948 5.77405 19.9969 6.29957 20.2073C6.71952 20.3758 7.07751 20.6205 7.37342 20.91L17.0357 16L7.37336 11.0898C7.07751 11.3793 6.71947 11.624 6.29957 11.7924C5.77405 12.003 5.38713 12.4051 5.23788 12.8956C5.08862 13.3861 5.19523 13.9048 5.53017 14.3183C6.34621 15.3241 6.34621 16.6758 5.53017 17.6818C5.19523 18.0951 5.08862 18.6138 5.23788 19.1043V19.1043ZM9.57593 14.1046C10.7652 14.1046 11.7292 14.9532 11.7292 16C11.7292 17.0467 10.7652 17.8953 9.57593 17.8953C8.38663 17.8953 7.42256 17.0467 7.42256 16C7.42256 14.9532 8.38663 14.1046 9.57593 14.1046Z" fill="#FF7010"/>
<path d="M3.00391 7.48218L6.83155 9.42727C6.85753 9.28622 6.8687 9.14184 6.85265 8.9949C6.75803 8.13119 7.10319 7.28371 7.80062 6.66984C8.49805 6.05598 9.45934 5.75237 10.4429 5.83506C11.2562 5.90564 12.0385 5.50897 12.3788 4.85132C12.7879 4.06111 13.5688 3.47931 14.5213 3.25468C15.4741 3.03005 16.4803 3.19017 17.283 3.69436C17.4195 3.78003 17.5671 3.84364 17.7188 3.89438V0C11.5248 0.202316 6.11474 3.14139 3.00391 7.48218V7.48218Z" fill="#FF7010"/>
<path d="M34.483 8.52075L30.6523 10.4674C30.7781 10.5577 30.9145 10.6384 31.0671 10.6996C31.9645 11.0591 32.6255 11.7463 32.8809 12.5846C33.1363 13.4231 32.9542 14.3093 32.3811 15.0158C31.9041 15.6045 31.9041 16.3954 32.3811 16.9839C32.9542 17.6906 33.1363 18.5768 32.8809 19.4153C32.6255 20.2536 31.9645 20.9408 31.0671 21.3005C30.9145 21.3617 30.7782 21.4423 30.6525 21.5326L34.483 23.4792C35.8296 21.2451 36.5959 18.7003 36.5959 16C36.5959 13.2996 35.8296 10.7549 34.483 8.52075V8.52075Z" fill="#FF7010"/>
<path d="M8.21112 23.1201C8.15559 23.6258 8.35771 24.1218 8.76595 24.4809C9.17375 24.8401 9.74146 25.0164 10.3114 24.9693C11.7134 24.8497 13.0394 25.5269 13.6209 26.651C13.8603 27.1131 14.317 27.4537 14.8745 27.5853C15.4311 27.7166 16.021 27.623 16.4905 27.3278C16.8662 27.0919 17.286 26.9414 17.7188 26.8606V17.0402L8.05664 21.9502C8.19357 22.3204 8.25537 22.7157 8.21112 23.1201V23.1201ZM12.1242 21.7788C12.7188 20.8722 14.0358 20.5616 15.0657 21.085C16.0956 21.6084 16.4484 22.7676 15.8539 23.6741C15.2592 24.5806 13.9423 24.8912 12.9123 24.3678C11.8824 23.8444 11.5296 22.6853 12.1242 21.7788V21.7788Z" fill="#FF7010"/>
<path d="M21.9264 27.5853C22.4839 27.4537 22.9405 27.1133 23.18 26.651C23.7619 25.5265 25.0995 24.8518 26.489 24.9693C27.0625 25.016 27.6271 24.8399 28.0349 24.4809C28.4431 24.1218 28.6452 23.6258 28.5897 23.1203C28.5455 22.7158 28.6073 22.3205 28.7442 21.9502L19.082 17.0402V26.8605C19.5148 26.9413 19.9346 27.0919 20.3103 27.3278C20.7803 27.6232 21.3702 27.7168 21.9264 27.5853V27.5853ZM21.7351 21.085C22.7651 20.5616 24.0821 20.8722 24.6767 21.7788C25.2713 22.6853 24.9184 23.8444 23.8885 24.3678C22.8586 24.8912 21.5416 24.5806 20.947 23.6741C20.3524 22.7676 20.7053 21.6084 21.7351 21.085Z" fill="#FF7010"/>
<path d="M31.5634 12.8957C31.4142 12.4052 31.0273 12.0031 30.5018 11.7927C30.0817 11.6242 29.7238 11.3795 29.4279 11.09L19.7656 16.0001L29.428 20.9102C29.7238 20.6207 30.0818 20.376 30.5018 20.2076C31.0273 19.997 31.4142 19.5949 31.5634 19.1044C31.7127 18.6139 31.6061 18.0952 31.2711 17.6817C30.4551 16.6759 30.4551 15.3242 31.2711 14.3182C31.6061 13.9049 31.7127 13.3862 31.5634 12.8957V12.8957ZM27.2254 17.8954C26.0362 17.8954 25.0721 17.0468 25.0721 16.0001C25.0721 14.9533 26.0362 14.1047 27.2254 14.1047C28.4147 14.1047 29.3788 14.9533 29.3788 16.0001C29.3788 17.0468 28.4147 17.8954 27.2254 17.8954Z" fill="#FF7010"/>
<path d="M28.5897 8.87991C28.6452 8.37415 28.4431 7.87818 28.0349 7.51905C27.6271 7.15991 27.0589 6.9824 26.4894 7.03069C25.0879 7.14897 23.7615 6.47332 23.18 5.34901C22.9405 4.88686 22.4839 4.5463 21.9264 4.41473C21.3698 4.28355 20.7803 4.377 20.3103 4.6722C19.9346 4.90812 19.5148 5.05863 19.082 5.13939V14.9598L28.7442 10.0498C28.6073 9.67955 28.5455 9.2843 28.5897 8.87991V8.87991ZM24.6767 10.2212C24.0821 11.1277 22.7651 11.4383 21.7351 10.9149C20.7053 10.3916 20.3524 9.23242 20.947 8.32589C21.5416 7.41939 22.8586 7.10879 23.8885 7.63217C24.9184 8.15554 25.2713 9.3147 24.6767 10.2212Z" fill="#FF7010"/>
</svg>
