<svg width="37" height="32" viewBox="0 0 37 32" fill="none" xmlns="http://www.w3.org/2000/svg">
<path d="M10.4344 0C10.0984 0 9.84759 0.238377 9.82788 0.533342V8.62814C10.4377 8.82165 10.9106 9.29421 11.0172 9.87918C11.0215 9.89954 11.2635 11.0933 12.2539 12.35V0.533342C12.2539 0.237873 11.9834 0 11.6474 0H10.4344ZM24.9907 0C24.6547 0 24.4039 0.238377 24.3842 0.533342V12.3448C25.3807 11.078 25.6244 9.86873 25.6244 9.86873C25.7347 9.28922 26.2047 8.82078 26.8102 8.62814V0.533342C26.8102 0.237873 26.5397 0 26.2037 0H24.9907ZM14.0735 2.13337C13.7375 2.13337 13.467 2.3712 13.467 2.66665V13.5511C14.088 14.0255 14.8621 14.4281 15.893 14.6729V2.66665C15.893 2.3712 15.6225 2.13337 15.2865 2.13337H14.0735ZM21.3516 2.13337C21.0156 2.13337 20.7451 2.3712 20.7451 2.66665V14.6729C21.7763 14.4277 22.5503 14.024 23.1712 13.549V2.66665C23.1712 2.3712 22.9006 2.13337 22.5646 2.13337H21.3516ZM6.79532 4.26667C6.45931 4.26667 6.1888 4.50454 6.1888 4.80001V8.5323H8.61485V4.80001C8.61485 4.50454 8.34435 4.26667 8.00834 4.26667H6.79532ZM17.7125 4.26667C17.3765 4.26667 17.106 4.50454 17.106 4.80001V14.875C17.4824 14.9125 17.8853 14.9333 18.3179 14.9333C18.7518 14.9333 19.1548 14.9127 19.5321 14.875V4.80001C19.5321 4.50454 19.2616 4.26667 18.9256 4.26667H17.7125ZM28.6298 4.26667C28.2938 4.26667 28.0233 4.50454 28.0233 4.80001V8.5323H30.4493V4.80001C30.4493 4.50454 30.1788 4.26667 29.8428 4.26667H28.6298ZM3.76275 9.59898C3.39759 9.60011 3.11632 9.88259 3.16335 10.201L6.19473 30.4646C6.30201 31.2584 7.00678 32 8.00716 32H28.6298C29.6276 32 30.3319 31.2601 30.4422 30.4687L33.4783 10.201C33.5256 9.88093 33.2412 9.59759 32.8742 9.59898H27.4167C27.12 9.60031 26.8679 9.79025 26.8209 10.0479C26.8209 10.0479 26.534 11.5286 25.3295 13.0239C24.1249 14.5193 22.0748 16 18.3191 16C14.5633 16 12.512 14.5193 11.3074 13.0239C10.1029 11.5286 9.82077 10.0479 9.82077 10.0479C9.77358 9.78906 9.51949 9.59878 9.22137 9.59898H3.76275ZM18.3191 19.7344C20.9916 19.7344 23.1712 21.6478 23.1712 23.9979C23.1712 26.348 20.9916 28.2656 18.3191 28.2656C15.6465 28.2656 13.4646 26.348 13.4646 23.9979C13.4646 21.6478 15.6465 19.7344 18.3191 19.7344Z" fill="#FF7010"/>
</svg>
