<svg width="37" height="32" viewBox="0 0 37 32" fill="none" xmlns="http://www.w3.org/2000/svg">
<g clip-path="url(#clip0_21_3497)">
<path d="M36.4116 10.4214C36.3753 7.97792 34.1109 6 31.3325 6C28.8504 6 26.7798 7.57913 26.3403 9.65834C25.4677 9.99896 23.9521 10.5437 23.0489 10.6763C21.96 10.836 20.644 10.884 19.1375 10.8187C16.2601 10.694 13.3874 9.86735 10.8298 8.42748C7.61139 6.61593 4.87027 6.192 1.94174 7.05292C0.805919 7.38688 0.0429688 8.32963 0.0429688 9.3993C0.0429688 9.74584 0.256473 10.0648 0.599633 10.2306C0.991936 10.4199 1.3587 10.5836 1.71352 10.7416C3.63561 11.5981 4.69452 12.0698 5.39611 14.6696C5.92029 16.6108 6.83733 18.2379 8.12224 19.5055C8.66752 20.0436 9.28055 20.5183 9.95549 20.9269H24.5465C26.7507 19.4666 28.1 17.2513 28.4709 14.4583C28.6936 12.7816 28.5064 11.3198 28.376 10.5994C28.3815 10.5607 28.3851 10.5215 28.3851 10.4813C28.3851 9.054 29.7072 7.89288 31.3325 7.89288C32.9575 7.89288 34.2799 9.054 34.2799 10.4813C34.2799 10.5264 34.2835 10.5715 34.2908 10.6161C34.2922 10.6255 34.4099 11.564 33.7524 12.2376C33.2135 12.7897 32.2615 13.0697 30.923 13.0697C30.3341 13.0697 29.8569 13.4934 29.8569 14.0162C29.8569 14.5387 30.3341 14.9626 30.923 14.9626C32.9078 14.9626 34.4021 14.4628 35.3638 13.4769C36.5435 12.2682 36.4569 10.7988 36.4116 10.4214Z" fill="#FF7010"/>
<path d="M9.96188 22.8196C9.90247 23.0234 9.87109 23.2371 9.87109 23.4569V25.0536C9.87109 25.5761 10.3484 26 10.9369 26H23.6339C24.2225 26 24.7 25.5761 24.7 25.0536V23.4569C24.7 23.2371 24.6684 23.0234 24.609 22.8196H9.96188Z" fill="#FF7010"/>
</g>
<defs>
<clipPath id="clip0_21_3497">
<rect width="36.3906" height="32" fill="white" transform="translate(0.0429688)"/>
</clipPath>
</defs>
</svg>
