<svg width="38" height="32" viewBox="0 0 38 32" fill="none" xmlns="http://www.w3.org/2000/svg">
<g clip-path="url(#clip0_21_3462)">
<path d="M22.9748 19.3818C18.1352 19.3818 13.5741 20.0078 9.78483 21.1921C8.84945 21.4844 7.87574 21.6328 6.89098 21.6327C5.67658 21.6327 4.49984 21.4049 3.42578 20.9854C4.30802 23.87 7.31302 26 10.8748 26H28.4922C32.0904 26 35.1208 23.8261 35.9679 20.8964C35.6248 20.8954 35.2835 20.8536 34.9533 20.7714C31.2997 19.8624 27.1575 19.3818 22.9748 19.3818V19.3818Z" fill="#FF7010"/>
<path d="M12.2644 18.2524C13.7759 17.929 15.3562 17.6777 16.9791 17.5004C13.8152 14.4597 13.5204 9.3412 16.4067 6C14.0827 6.06286 11.814 6.39693 9.70149 6.97437C8.61915 7.88611 7.85106 9.06045 7.50911 10.3514C6.58469 13.5583 8.74151 17.1184 12.2644 18.2524Z" fill="#FF7010"/>
<path d="M8.92429 19.1221C5.76037 17.0409 4.1128 13.4435 5.064 9.85267C5.18401 9.39963 5.34578 8.95812 5.54219 8.53027C4.70381 8.94175 3.91228 9.39948 3.17792 9.90158C-1.3805 12.9999 1.21509 19.4418 6.89117 19.4297C7.5667 19.4297 8.25311 19.3298 8.92429 19.1221V19.1221Z" fill="#FF7010"/>
<path d="M30.3518 9.22607C29.2452 9.70452 28.3529 10.4897 27.811 11.4733C26.8996 13.127 27.1277 15.0496 28.34 16.487C28.5274 16.7092 29.2162 17.3774 29.2802 17.529C31.4677 17.774 33.609 18.147 35.639 18.6521C36.0608 18.7571 36.515 18.6612 36.8363 18.3991C37.1575 18.137 37.2996 17.7466 37.2109 17.3696C36.444 14.1095 33.9282 11.259 30.3518 9.22607V9.22607Z" fill="#FF7010"/>
<path d="M20.3933 17.2381C22.2167 17.1552 24.0665 17.1612 25.9069 17.2552C24.515 15.2415 24.3373 12.7143 25.5498 10.5142C26.0952 9.52423 26.8856 8.67316 27.8538 8.01215C25.4217 7.00796 22.6549 6.33791 19.7066 6.09277C15.7164 8.98109 16.0916 14.7692 20.3933 17.2381V17.2381Z" fill="#FF7010"/>
</g>
<defs>
<clipPath id="clip0_21_3462">
<rect width="36.3907" height="32" fill="white" transform="translate(0.845703)"/>
</clipPath>
</defs>
</svg>
