<svg width="25" height="22" viewBox="0 0 25 22" fill="none" xmlns="http://www.w3.org/2000/svg">
<path d="M8.56641 14.5001H21.2697C21.5843 14.5001 21.8602 14.293 21.9454 13.9922L24.7581 4.1921C24.8185 3.98083 24.7771 3.75388 24.644 3.57833C24.5107 3.40333 24.3034 3.29998 24.0822 3.29998H6.94318L6.44055 1.04833C6.36914 0.72768 6.0835 0.5 5.75391 0.5H1.48828C1.09973 0.5 0.785156 0.813174 0.785156 1.19999C0.785156 1.587 1.09973 1.89999 1.48828 1.89999H5.18958L7.7287 13.2749C6.98163 13.5983 6.45703 14.3386 6.45703 15.2001C6.45703 16.358 7.40332 17.3 8.56641 17.3H21.2697C21.6584 17.3 21.9728 16.987 21.9728 16.6C21.9728 16.2132 21.6584 15.9 21.2697 15.9H8.56641C8.17914 15.9 7.86328 15.5863 7.86328 15.2001C7.86328 14.8138 8.17914 14.5001 8.56641 14.5001V14.5001Z" fill="white"/>
<path d="M7.86328 19.4C7.86328 20.5581 8.80957 21.5 9.97284 21.5C11.1359 21.5 12.0822 20.5581 12.0822 19.4C12.0822 18.2421 11.1359 17.3 9.97284 17.3C8.80957 17.3 7.86328 18.2421 7.86328 19.4Z" fill="white"/>
<path d="M17.7539 19.4C17.7539 20.5581 18.7002 21.5 19.8633 21.5C21.0266 21.5 21.9727 20.5581 21.9727 19.4C21.9727 18.2421 21.0266 17.3 19.8633 17.3C18.7002 17.3 17.7539 18.2421 17.7539 19.4Z" fill="white"/>
</svg>
