<svg width="20" height="20" viewBox="0 0 20 20" fill="none" xmlns="http://www.w3.org/2000/svg">
<path fill-rule="evenodd" clip-rule="evenodd" d="M9.7126 0C6.69322 0 4.23633 2.14979 4.23633 4.79176C4.23633 7.43372 6.69321 9.58333 9.7126 9.58333C12.732 9.58333 15.1889 7.43372 15.1889 4.79176C15.1889 2.14979 12.732 0 9.7126 0ZM5.45603 4.79176C5.45603 2.73768 7.36532 1.06724 9.7126 1.06724C12.0599 1.06724 13.9692 2.73768 13.9692 4.79176C13.9692 6.84566 12.0599 8.51609 9.7126 8.51609C7.36533 8.51609 5.45603 6.84566 5.45603 4.79176Z" fill="#FF7010"/>
<path fill-rule="evenodd" clip-rule="evenodd" d="M5.10051 11.6666C2.39294 11.6666 0.189453 13.6454 0.189453 16.0769V19.4883C0.189453 19.7707 0.444791 20 0.759251 20H18.6672C18.9817 20 19.237 19.7707 19.237 19.4883V16.0769C19.237 13.6454 17.0335 11.6666 14.3259 11.6666H5.10051ZM1.32905 16.0769C1.32905 14.2093 3.02087 12.69 5.10051 12.69H14.3259C16.4056 12.69 18.0974 14.2093 18.0974 16.0769V18.9766H1.32905V16.0769Z" fill="#FF7010"/>
</svg>
